<svg xmlns="http://www.w3.org/2000/svg" viewBox="0 0 24 24" width="24" height="24">
  <path fill="#81b5a1" d="M12.015 2.155A9.855 9.855 0 1021.87 12.01a9.855 9.855 0 00-9.855-9.855z" opacity=".2"/>
  <path fill="#1a4d46" d="M13.627 9.143v-.921c0-.494-.176-.902-.53-1.222a2.007 2.007 0 00-2.348-.124 1.832 1.832 0 00-.73.94l-.799-.34c.189-.481.458-.871.808-1.171.609-.523 1.341-.784 2.196-.784a3.116 3.116 0 012.316.963c.594.636.892 1.487.892 2.551v6h-1.077V13.88a2.536 2.536 0 01-1.84.975c-.868 0-1.573-.284-2.115-.853-.541-.569-.812-1.309-.812-2.22 0-1.028.328-1.84 1.05-2.433.644-.528 1.442-.816 2.395-.863l.594-.031zm-.242 1.05l-.547.03c-.636.035-1.15.2-1.543.496a1.536 1.536 0 00-.59 1.258c0 .641.196 1.151.587 1.53.391.38.874.57 1.446.57a1.693 1.693 0 001.373-.672 2.652 2.652 0 00.548-1.804v-1.408h-.275z"/>
</svg>
